# xmcd
#
# Track frame offsets: 
#        150
#        14200
#        30087
#        44092
#        56964
#        71054
#        85287
#        99885
#        113424
#        128150
#        141248
#        153512
#        165937
#        180979
#        196615
#        210450
#        225093
#        236931
#
# Disc length: 3341 seconds
#
# Revision: 1
# Processed by: cddbd v1.5.2PL0 Copyright (c) Steve Scherf et al.
# Submitted via: ExactAudioCopy v0.95b4
#
DISCID=e50d0b12
DTITLE=Victory Spivey - The Essential Victoria Spivey Disc 2
DYEAR=1900
DGENRE=Blues
TTITLE0=Moaning the Blues 
TTITLE1=No. 12 Let Me Roam 
TTITLE2=Blood Thirsty Blues 
TTITLE3=Any-Kind-A-Man 
TTITLE4=Furniture Man Blues, Pt. 1
TTITLE5=Furniture Man Blues, Pt. 2
TTITLE6=How Do They Do It That Way 
TTITLE7=Idle Hour Blues 
TTITLE8=Garter Snake Blues 
TTITLE9=Harlem Susie-Kue 
TTITLE10=One Hour Mama 
TTITLE11=Dreaming of You 
TTITLE12=Baulin' Water Blues, Pt. 1
TTITLE13=Baulin' Water Blues, Pt. 2
TTITLE14=Down Hill Pull 
TTITLE15=Hollywood Stomp
TTITLE16=Got the Blues So Bad 
TTITLE17=Good Cabbage 
EXTD=hale
EXTT0=
EXTT1=
EXTT2=
EXTT3=
EXTT4=
EXTT5=
EXTT6=
EXTT7=
EXTT8=
EXTT9=
EXTT10=
EXTT11=
EXTT12=
EXTT13=
EXTT14=
EXTT15=
EXTT16=
EXTT17=
PLAYORDER=
